<?xml version="1.0" encoding="utf-8"?>
<!-- Generator: Adobe Illustrator 22.0.1, SVG Export Plug-In . SVG Version: 6.00 Build 0)  -->
<svg version="1.1" id="Layer_1" xmlns="http://www.w3.org/2000/svg" xmlns:xlink="http://www.w3.org/1999/xlink" x="0px" y="0px"
	 viewBox="0 0 250 89" style="enable-background:new 0 0 250 89;" xml:space="preserve">
<style type="text/css">
	.st0{fill:#FFFFFF;}
</style>
<g>
	<path class="st0" d="M35,65.4l-10.1-16v16H12.4V23.1h12.5v15.3l10.3-15.3h15.2v0.4L35.1,43.4L50.3,65v0.4H35z"/>
	<path class="st0" d="M179,42.4l-4.9-7.2V32h4.6v-4.4h-5.4v14.8h-5.7V23.1h14.5c1.5,0,2.3,0.9,2.3,2.4v7.6c0,1.5-0.8,2.4-2.3,2.4
		h-1.2l4.4,6.7v0.2H179z"/>
	<path class="st0" d="M185.3,42.4V23.1h15.8v4.6H191v2.6h7.8v4.4H191v3h11.7v4.6H185.3z"/>
	<path class="st0" d="M214.8,42.4l-6.3-9.6v9.6h-5.7V23.1h5.6l6.3,9.6v-9.6h5.7v19.3H214.8z"/>
	<path class="st0" d="M231.9,27.8v14.6h-5.7V27.8h-5.8v-4.6h17.2v4.6H231.9z"/>
	<path class="st0" d="M173.6,61.7l-0.6-2.2h-5.1l-0.6,2.2h-4.7v0L168,46h5l5.4,15.7v0H173.6z M170.5,51l-1.4,5h2.8L170.5,51z"/>
	<path class="st0" d="M193.6,65.2h-12.9c-1.5,0-2.2-0.9-2.2-2.4V48.3c0-1.5,0.8-2.4,2.2-2.4h12.9c1.5,0,2.3,0.9,2.3,2.4v5.1h-5.7v-3
		h-6.1v10.4h6.1v-3.1h5.7v5.1C195.9,64.3,195.1,65.2,193.6,65.2z"/>
	<path class="st0" d="M209.4,65.2l-0.7-2.7h-6.2l-0.8,2.7h-5.8v-0.1l6.7-19.2h6.1l6.7,19.2v0.1H209.4z M205.6,52.1l-1.7,6.1h3.4
		L205.6,52.1z"/>
	<path class="st0" d="M226.7,65.2l-4.9-7.2v-3.3h4.6v-4.4H221v14.8h-5.7V45.9h14.5c1.5,0,2.3,0.9,2.3,2.4v7.6c0,1.5-0.8,2.4-2.3,2.4
		h-1.2L233,65v0.2H226.7z"/>
	<path class="st0" d="M120.9,23.1c-3.5,0-6.3,2.8-6.3,6.3v14.7l-13.7-21L88.4,4v6.9l38.7,59.6v-5.1V33.3h12.6v32.1h12.5V33.3h12.6
		V23.1H120.9z"/>
	<path class="st0" d="M88.4,17.5v5.7v32.1H62.8v-6.5H80v-9.6H62.8v-5.8h22.5V23.1h-35v42.3h38.1h6.2c3.5,0,6.2-2.8,6.2-6.2V44.3
		L127.1,84v-6.9L88.4,17.5z"/>
</g>
</svg>
